# xmcd
#
# Track frame offsets:
#	150
#	14669
#	28566
#	41803
#	57786
#	70389
#	83194
#	98971
#	112754
#	123936
#	137654
#	152103
#	164378
#	179981
#	194613
#	205725
#	218143
#	231410
#	242404
#	253655
#	267930
#	283162
#	296291
#	311188
#	324604
#	340771
#
# Disc length: 4708 seconds
#
# Revision: 1
# Processed by: cddbd v1.5.2PL0 Copyright (c) Steve Scherf et al.
# Submitted via: audiograbber 1.83.01
#
DISCID=8d12621a
DTITLE=The Downhome Blues Sessions, Volume 5 - Back In The Alley 1949 - 1954
DYEAR=2008
DGENRE=Blues
TTITLE0=Johnny Fuller - Hard Times
TTITLE1=Johnny Fuller - It's Your Life
TTITLE2=Walter Robertson - I've Done Everything I Can
TTITLE3=Johnny Fuller - Johnny's Low Down Blues
TTITLE4=James Reed - This Is The End aka The End
TTITLE5=James Reed - My Mama Told Me
TTITLE6=James Reed - Dr Brown
TTITLE7=Jimmy Mccracklin and His Blues Blasters - I Think My Time Is Here (Take 1
TTITLE7=)
TTITLE8=Jimmy Mccracklin and His Blues Blasters - Josephine (Take 6)
TTITLE9=Jimmy Mccracklin and His Blues Blasters - Beer Drinkin' Woman (Take 4)
TTITLE10=Lowell Fulson - I'm Prison Bound aka Doin' Time Blues
TTITLE11=Lowell Fulson - My Baby Left Me aka Some Old Lonesome Day
TTITLE12=Roy Hawkins - You Had A Good Man (Take 1)
TTITLE13=Roy Hawkins - Just A Poor Boy (Take 2)
TTITLE14=James Reed - You Better Hold Me
TTITLE15=James Reed - Oh People
TTITLE16=James Reed - My Love Is Real
TTITLE17=Johnny Fuller - I Walk All Night
TTITLE18=Johnny Fuller - Back Home
TTITLE19=Walter Robertson - Sputterin' Blues
TTITLE20=Johnny Fuller - Buddy
TTITLE21=Johnny Fuller - Prowling Blues
TTITLE22=James Reed - The End aka This I The End
TTITLE23=James Reed - Dr Brown (Alternate Take)
TTITLE24=Jimmy Mccracklin and His Blues Blasters - Couldn't Be A Dream (Take 1)
TTITLE25=Jimmy Mccracklin and His Blues Blasters - I'll Get A Break Someday (Take
TTITLE25=7)
EXTD=
EXTT0=
EXTT1=
EXTT2=
EXTT3=
EXTT4=
EXTT5=
EXTT6=
EXTT7=
EXTT8=
EXTT9=
EXTT10=
EXTT11=
EXTT12=
EXTT13=
EXTT14=
EXTT15=
EXTT16=
EXTT17=
EXTT18=
EXTT19=
EXTT20=
EXTT21=
EXTT22=
EXTT23=
EXTT24=
EXTT25=
PLAYORDER=
